<?xml version="1.0" encoding="utf-8"?>
<!-- Generator: Adobe Illustrator 16.0.3, SVG Export Plug-In . SVG Version: 6.00 Build 0)  -->
<!DOCTYPE svg PUBLIC "-//W3C//DTD SVG 1.1//EN" "http://www.w3.org/Graphics/SVG/1.1/DTD/svg11.dtd">
<svg version="1.1" xmlns="http://www.w3.org/2000/svg" xmlns:xlink="http://www.w3.org/1999/xlink" x="0px" y="0px" width="21px"
	 height="21px" viewBox="0 0 21 21" enable-background="new 0 0 21 21" xml:space="preserve">
<g id="up">
	<path fill-rule="evenodd" clip-rule="evenodd" fill="#FFFFFF" d="M10.898,11.312c-0.245-0.311-0.828-0.316-1.073,0
		c-0.147,0.191-0.924,1.197-1.819,2.357c-1.525,0-2.699,0-2.827,0c-0.495,0-0.864-0.389-0.574-0.771
		c0.232-0.309,4.918-6.451,5.318-6.974c0.264-0.346,0.892-0.34,1.156,0c0.294,0.377,5.004,6.542,5.331,6.99
		c0.24,0.326-0.025,0.756-0.571,0.756c-0.191,0-1.488,0-3.115,0C11.802,12.477,11.01,11.452,10.898,11.312z"/>
</g>
</svg>
