<?xml version="1.0" encoding="utf-8"?>
<!-- Generator: Adobe Illustrator 16.0.3, SVG Export Plug-In . SVG Version: 6.00 Build 0)  -->
<!DOCTYPE svg PUBLIC "-//W3C//DTD SVG 1.1//EN" "http://www.w3.org/Graphics/SVG/1.1/DTD/svg11.dtd">
<svg version="1.1" xmlns="http://www.w3.org/2000/svg" xmlns:xlink="http://www.w3.org/1999/xlink" x="0px" y="0px" width="21px"
	 height="21px" viewBox="0 0 21 21" enable-background="new 0 0 21 21" xml:space="preserve">
<g id="down">
	<path fill-rule="evenodd" clip-rule="evenodd" fill="#FFFFFF" d="M10.102,10.023c0.245,0.311,0.828,0.316,1.073,0
		c0.147-0.191,0.924-1.197,1.819-2.357c1.525,0,2.699,0,2.827,0c0.495,0,0.864,0.389,0.574,0.771
		c-0.232,0.309-4.918,6.451-5.318,6.975c-0.264,0.346-0.892,0.34-1.155,0c-0.294-0.377-5.004-6.543-5.331-6.99
		c-0.24-0.326,0.025-0.756,0.571-0.756c0.192,0,1.489,0,3.116,0C9.198,8.858,9.99,9.883,10.102,10.023z"/>
</g>
</svg>
