<?xml version="1.0" encoding="utf-8"?>
<!-- Generator: Adobe Illustrator 16.0.3, SVG Export Plug-In . SVG Version: 6.00 Build 0)  -->
<!DOCTYPE svg PUBLIC "-//W3C//DTD SVG 1.1//EN" "http://www.w3.org/Graphics/SVG/1.1/DTD/svg11.dtd">
<svg version="1.1" id="Layer_1" xmlns="http://www.w3.org/2000/svg" xmlns:xlink="http://www.w3.org/1999/xlink" x="0px" y="0px"
	 width="48px" height="48px" viewBox="0 0 48 48" enable-background="new 0 0 48 48" xml:space="preserve">
<g>
	<path fill-rule="evenodd" clip-rule="evenodd" d="M36.5,19.007h-1v-5C34.913,8.285,29.855,3.993,24.009,3.993
		S12.938,8.288,12.5,14.007v5h-1c-2.209,0-4,1.791-4,4v17c0,2.209,1.791,4,4,4h25c2.209,0,4-1.791,4-4v-17
		C40.5,20.798,38.709,19.007,36.5,19.007z M14.5,14.007c0.725-4.526,4.773-7.989,9.504-7.989s8.771,3.463,9.496,7.989v5h-19V14.007z
		 M38.508,38.997c0,1.657-1.344,3-3,3h-23c-1.657,0-3-1.343-3-3V23.998c0-1.657,1.343-3,3-3h23c1.656,0,3,1.343,3,3V38.997z"/>
	<ellipse fill-rule="evenodd" clip-rule="evenodd" cx="14.408" cy="32.989" rx="1.917" ry="2"/>
	<ellipse fill-rule="evenodd" clip-rule="evenodd" cx="20.796" cy="32.989" rx="1.917" ry="2"/>
	<ellipse fill-rule="evenodd" clip-rule="evenodd" cx="27.186" cy="32.989" rx="1.917" ry="2"/>
	<ellipse fill-rule="evenodd" clip-rule="evenodd" cx="33.574" cy="32.989" rx="1.916" ry="2"/>
</g>
</svg>
