<?xml version="1.0" encoding="UTF-8" standalone="no"?>
<!-- Generator: Adobe Illustrator 16.0.3, SVG Export Plug-In . SVG Version: 6.00 Build 0)  -->

<svg
   xmlns:dc="http://purl.org/dc/elements/1.1/"
   xmlns:cc="http://creativecommons.org/ns#"
   xmlns:rdf="http://www.w3.org/1999/02/22-rdf-syntax-ns#"
   xmlns:svg="http://www.w3.org/2000/svg"
   xmlns="http://www.w3.org/2000/svg"
   xmlns:sodipodi="http://sodipodi.sourceforge.net/DTD/sodipodi-0.dtd"
   xmlns:inkscape="http://www.inkscape.org/namespaces/inkscape"
   version="1.1"
   id="Layer_1"
   x="0px"
   y="0px"
   width="48px"
   height="48px"
   viewBox="0 0 48 48"
   enable-background="new 0 0 48 48"
   xml:space="preserve"
   inkscape:version="0.48.4 r9939"
   sodipodi:docname="request-access.svg"><metadata
   id="metadata19"><rdf:RDF><cc:Work
       rdf:about=""><dc:format>image/svg+xml</dc:format><dc:type
         rdf:resource="http://purl.org/dc/dcmitype/StillImage" /></cc:Work></rdf:RDF></metadata><defs
   id="defs17" /><sodipodi:namedview
   pagecolor="#ffffff"
   bordercolor="#666666"
   borderopacity="1"
   objecttolerance="10"
   gridtolerance="10"
   guidetolerance="10"
   inkscape:pageopacity="0"
   inkscape:pageshadow="2"
   inkscape:window-width="1436"
   inkscape:window-height="858"
   id="namedview15"
   showgrid="false"
   inkscape:zoom="13.906433"
   inkscape:cx="18.247899"
   inkscape:cy="22.93274"
   inkscape:window-x="661"
   inkscape:window-y="299"
   inkscape:window-maximized="0"
   inkscape:current-layer="g3" />
<g
   id="g3">
	<path
   fill-rule="evenodd"
   clip-rule="evenodd"
   d="M36.5,19.007h-1v-5C34.913,8.285,29.855,3.993,24.009,3.993   S12.938,8.288,12.5,14.007v5h-1c-2.209,0-4,1.791-4,4v17c0,2.209,1.791,4,4,4h25c2.209,0,4-1.791,4-4v-17   C40.5,20.798,38.709,19.007,36.5,19.007z M14.5,14.007c0.725-4.526,4.773-7.989,9.504-7.989s8.771,3.463,9.496,7.989v5h-19V14.007z    M38.508,38.997c0,1.657-1.344,3-3,3h-23c-1.657,0-3-1.343-3-3V23.998c0-1.657,1.343-3,3-3h23c1.656,0,3,1.343,3,3V38.997z"
   id="path5"
   style="fill:#8e8f91;fill-opacity:1" />
	<ellipse
   fill-rule="evenodd"
   clip-rule="evenodd"
   cx="14.408"
   cy="32.989"
   rx="1.917"
   ry="2"
   id="ellipse7"
   style="fill:#8e8f91;fill-opacity:1" />
	<ellipse
   fill-rule="evenodd"
   clip-rule="evenodd"
   cx="20.796"
   cy="32.989"
   rx="1.917"
   ry="2"
   id="ellipse9"
   style="fill:#8e8f91;fill-opacity:1" />
	<ellipse
   fill-rule="evenodd"
   clip-rule="evenodd"
   cx="27.186"
   cy="32.989"
   rx="1.917"
   ry="2"
   id="ellipse11"
   style="fill:#8e8f91;fill-opacity:1" />
	<ellipse
   fill-rule="evenodd"
   clip-rule="evenodd"
   cx="33.574"
   cy="32.989"
   rx="1.916"
   ry="2"
   id="ellipse13"
   style="fill:#8e8f91;fill-opacity:1" />
<path
   style="opacity:0.51769912;fill:#8e8f91;fill-opacity:0"
   d="M 10.868347,43.916569 C 9.7356881,43.748737 8.5326372,42.87585 8.0118971,41.84404 7.5080246,40.845651 7.5453939,41.59885 7.5209616,31.948967 7.5071954,26.511829 7.5256085,23.028656 7.5700482,22.66333 7.732831,21.32514 8.3812531,20.287523 9.4633191,19.633685 10.147378,19.220341 10.607451,19.097309 11.615841,19.058058 l 0.911213,-0.03547 0.02953,-2.885003 c 0.02898,-2.831933 0.03298,-2.89823 0.217426,-3.604094 0.567486,-2.171763 1.453617,-3.6869133 3.054018,-5.2219146 1.379807,-1.3234213 3.030375,-2.2663535 4.8867,-2.7916621 1.009698,-0.2857274 1.382967,-0.3526633 2.454282,-0.4401088 2.885503,-0.2355279 5.878968,0.6985451 8.209507,2.5616727 1.573138,1.2576307 2.825529,2.9994698 3.486694,4.8493298 0.542802,1.518699 0.609372,2.068159 0.610872,5.042074 l 0.0013,2.489299 0.916842,0.03642 c 0.736526,0.02925 1.011295,0.07144 1.397102,0.214486 1.258814,0.466734 2.211927,1.504748 2.540709,2.767026 0.158701,0.609296 0.159627,18.334082 9.85e-4,18.930193 -0.352708,1.325361 -1.347768,2.368338 -2.698366,2.828307 l -0.46741,0.159184 -12.943649,0.0099 c -7.119008,0.0054 -13.128849,-0.01757 -13.355204,-0.0511 l 0,0 z m 25.112352,-1.939421 c 1.11447,-0.176373 2.044199,-0.9635 2.424152,-2.052335 0.112977,-0.32376 0.125287,-1.002563 0.146429,-8.074914 0.01379,-4.613622 -0.0044,-7.919561 -0.04513,-8.213676 -0.168642,-1.216944 -0.952104,-2.159735 -2.088715,-2.513487 -0.437778,-0.136252 -0.762721,-0.139916 -12.409612,-0.139916 -11.64689,0 -11.971834,0.0037 -12.409612,0.139916 -1.13661,0.353752 -1.9200718,1.296543 -2.088714,2.513487 -0.040758,0.294115 -0.058923,3.600054 -0.04513,8.213676 0.021142,7.072351 0.033451,7.751154 0.1464287,8.074914 0.3685803,1.056245 1.3101968,1.875199 2.3522428,2.045821 0.572641,0.09376 23.42718,0.09996 24.017661,0.0065 l 0,-10e-7 z M 33.535132,16.47052 c -6.48e-4,-2.489411 -0.0062,-2.592587 -0.176455,-3.260786 C 32.933273,11.539964 32.116375,10.108414 30.87593,8.8589108 28.864298,6.8325902 26.09151,5.8110468 23.212884,6.0357112 19.01577,6.3632778 15.4725,9.4201613 14.555991,13.504267 c -0.0414,0.184473 -0.07337,1.444266 -0.07437,2.930298 l -0.0018,2.606707 9.527964,0 9.527964,0 -6.47e-4,-2.570752 -8e-6,0 z"
   id="path3878"
   inkscape:connector-curvature="0" /><path
   style="opacity:0.51769912;fill:#8e8f91;fill-opacity:0"
   d="M 10.868347,43.916569 C 9.7356881,43.748737 8.5326372,42.87585 8.0118971,41.84404 7.5080246,40.845651 7.5453939,41.59885 7.5209616,31.948967 7.5071954,26.511829 7.5256085,23.028656 7.5700482,22.66333 7.732831,21.32514 8.3812531,20.287523 9.4633191,19.633685 10.147378,19.220341 10.607451,19.097309 11.615841,19.058058 l 0.911213,-0.03547 0.02953,-2.885003 c 0.02898,-2.831933 0.03298,-2.89823 0.217426,-3.604094 0.567486,-2.171763 1.453617,-3.6869133 3.054018,-5.2219146 1.379807,-1.3234213 3.030375,-2.2663535 4.8867,-2.7916621 1.009698,-0.2857274 1.382967,-0.3526633 2.454282,-0.4401088 2.885503,-0.2355279 5.878968,0.6985451 8.209507,2.5616727 1.573138,1.2576307 2.825529,2.9994698 3.486694,4.8493298 0.542802,1.518699 0.609372,2.068159 0.610872,5.042074 l 0.0013,2.489299 0.916842,0.03642 c 0.736526,0.02925 1.011295,0.07144 1.397102,0.214486 1.258814,0.466734 2.211927,1.504748 2.540709,2.767026 0.158701,0.609296 0.159627,18.334082 9.85e-4,18.930193 -0.352708,1.325361 -1.347768,2.368338 -2.698366,2.828307 l -0.46741,0.159184 -12.943649,0.0099 c -7.119008,0.0054 -13.128849,-0.01757 -13.355204,-0.0511 l 0,0 z m 25.112352,-1.939421 c 1.11447,-0.176373 2.044199,-0.9635 2.424152,-2.052335 0.112977,-0.32376 0.125287,-1.002563 0.146429,-8.074914 0.01379,-4.613622 -0.0044,-7.919561 -0.04513,-8.213676 -0.168642,-1.216944 -0.952104,-2.159735 -2.088715,-2.513487 -0.437778,-0.136252 -0.762721,-0.139916 -12.409612,-0.139916 -11.64689,0 -11.971834,0.0037 -12.409612,0.139916 -1.13661,0.353752 -1.9200718,1.296543 -2.088714,2.513487 -0.040758,0.294115 -0.058923,3.600054 -0.04513,8.213676 0.021142,7.072351 0.033451,7.751154 0.1464287,8.074914 0.3685803,1.056245 1.3101968,1.875199 2.3522428,2.045821 0.572641,0.09376 23.42718,0.09996 24.017661,0.0065 l 0,-10e-7 z M 33.535132,16.47052 c -6.48e-4,-2.489411 -0.0062,-2.592587 -0.176455,-3.260786 C 32.933273,11.539964 32.116375,10.108414 30.87593,8.8589108 28.864298,6.8325902 26.09151,5.8110468 23.212884,6.0357112 19.01577,6.3632778 15.4725,9.4201613 14.555991,13.504267 c -0.0414,0.184473 -0.07337,1.444266 -0.07437,2.930298 l -0.0018,2.606707 9.527964,0 9.527964,0 -6.47e-4,-2.570752 -8e-6,0 z"
   id="path3880"
   inkscape:connector-curvature="0" /><path
   style="opacity:0.51769911999999996;fill:none;fill-opacity:0;stroke:none;stroke-opacity:1"
   d="M 10.868347,43.916569 C 9.7356881,43.748737 8.5326372,42.87585 8.0118971,41.84404 7.5080246,40.845651 7.5453939,41.59885 7.5209616,31.948967 7.5071954,26.511829 7.5256085,23.028656 7.5700482,22.66333 7.732831,21.32514 8.3812531,20.287523 9.4633191,19.633685 10.147378,19.220341 10.607451,19.097309 11.615841,19.058058 l 0.911213,-0.03547 0.02953,-2.885003 c 0.02898,-2.831933 0.03298,-2.89823 0.217426,-3.604094 0.567486,-2.171763 1.453617,-3.6869133 3.054018,-5.2219146 1.379807,-1.3234213 3.030375,-2.2663535 4.8867,-2.7916621 1.009698,-0.2857274 1.382967,-0.3526633 2.454282,-0.4401088 2.885503,-0.2355279 5.878968,0.6985451 8.209507,2.5616727 1.573138,1.2576307 2.825529,2.9994698 3.486694,4.8493298 0.542802,1.518699 0.609372,2.068159 0.610872,5.042074 l 0.0013,2.489299 0.916842,0.03642 c 0.736526,0.02925 1.011295,0.07144 1.397102,0.214486 1.258814,0.466734 2.211927,1.504748 2.540709,2.767026 0.158701,0.609296 0.159627,18.334082 9.85e-4,18.930193 -0.352708,1.325361 -1.347768,2.368338 -2.698366,2.828307 l -0.46741,0.159184 -12.943649,0.0099 c -7.119008,0.0054 -13.128849,-0.01757 -13.355204,-0.0511 l 0,0 z m 25.112352,-1.939421 c 1.11447,-0.176373 2.044199,-0.9635 2.424152,-2.052335 0.112977,-0.32376 0.125287,-1.002563 0.146429,-8.074914 0.01379,-4.613622 -0.0044,-7.919561 -0.04513,-8.213676 -0.168642,-1.216944 -0.952104,-2.159735 -2.088715,-2.513487 -0.437778,-0.136252 -0.762721,-0.139916 -12.409612,-0.139916 -11.64689,0 -11.971834,0.0037 -12.409612,0.139916 -1.13661,0.353752 -1.9200718,1.296543 -2.088714,2.513487 -0.040758,0.294115 -0.058923,3.600054 -0.04513,8.213676 0.021142,7.072351 0.033451,7.751154 0.1464287,8.074914 0.3685803,1.056245 1.3101968,1.875199 2.3522428,2.045821 0.572641,0.09376 23.42718,0.09996 24.017661,0.0065 l 0,-10e-7 z M 33.535132,16.47052 c -6.48e-4,-2.489411 -0.0062,-2.592587 -0.176455,-3.260786 C 32.933273,11.539964 32.116375,10.108414 30.87593,8.8589108 28.864298,6.8325902 26.09151,5.8110468 23.212884,6.0357112 19.01577,6.3632778 15.4725,9.4201613 14.555991,13.504267 c -0.0414,0.184473 -0.07337,1.444266 -0.07437,2.930298 l -0.0018,2.606707 9.527964,0 9.527964,0 -6.47e-4,-2.570752 -8e-6,0 z"
   id="path3896"
   inkscape:connector-curvature="0" /></g>
</svg>