<?xml version="1.0" encoding="utf-8"?>
<!-- Generator: Adobe Illustrator 16.0.3, SVG Export Plug-In . SVG Version: 6.00 Build 0)  -->
<!DOCTYPE svg PUBLIC "-//W3C//DTD SVG 1.1//EN" "http://www.w3.org/Graphics/SVG/1.1/DTD/svg11.dtd">
<svg version="1.1"
	 id="Layer_1" xmlns:inkscape="http://www.inkscape.org/namespaces/inkscape" xmlns:sodipodi="http://sodipodi.sourceforge.net/DTD/sodipodi-0.dtd" xmlns:svg="http://www.w3.org/2000/svg" xmlns:rdf="http://www.w3.org/1999/02/22-rdf-syntax-ns#" xmlns:cc="http://creativecommons.org/ns#" xmlns:dc="http://purl.org/dc/elements/1.1/" sodipodi:docname="aad-logo.svg" inkscape:version="0.48.4 r9939"
	 xmlns="http://www.w3.org/2000/svg" xmlns:xlink="http://www.w3.org/1999/xlink" x="0px" y="0px" width="200px" height="200px"
	 viewBox="0 0 200 200" enable-background="new 0 0 200 200" xml:space="preserve">
<sodipodi:namedview  id="namedview13" borderopacity="1" pagecolor="#ffffff" bordercolor="#666666" objecttolerance="10" gridtolerance="10" guidetolerance="10" showgrid="false" inkscape:zoom="2.36" inkscape:cx="108.09521" inkscape:cy="111.78101" inkscape:current-layer="g3" inkscape:window-maximized="0" inkscape:window-y="434" inkscape:window-x="2181" inkscape:window-height="874" inkscape:window-width="1622" inkscape:pageshadow="2" inkscape:pageopacity="0">
	</sodipodi:namedview>
<g id="g3" display="none">
	<path id="path5" display="inline" fill="#9C9C9C" d="M103.486,42.327H42.354v61.133h61.134V42.327H103.486z M98.179,98.113h-50.42
		V47.694h50.42V98.113z"/>
	<rect id="rect7" x="112.57" y="58.559" display="inline" fill="#9C9C9C" width="45.076" height="45.076"/>
	<rect id="rect9" x="112.57" y="112.598" display="inline" fill="#9C9C9C" width="45.076" height="45.075"/>
	<rect id="rect11" x="58.533" y="112.598" display="inline" fill="#9C9C9C" width="45.076" height="45.075"/>
</g>
<path fill-rule="evenodd" clip-rule="evenodd" fill="#FFFDFD" d="M100,0C44.771,0,0,44.771,0,100c0,55.228,44.771,100,100,100
	s100-44.771,100-100C200,44.771,155.229,0,100,0z M100,194.365c-52.117,0-94.367-42.248-94.367-94.365
	c0-52.117,42.25-94.367,94.367-94.367s94.366,42.25,94.366,94.367C194.366,152.117,152.117,194.365,100,194.365z M52.011,52.995
	v46.994h46.984V52.995H52.011z M95.007,96.005H56.012V56.996h38.996V96.005z M106.002,65.002h35.013V100h-35.013V65.002z
	 M106.002,107.002h35.013V142h-35.013V107.002z M64.015,107.002h34.981V142H64.015V107.002z"/>
</svg>
