<?xml version="1.0" encoding="utf-8"?>
<!-- Generator: Adobe Illustrator 16.0.3, SVG Export Plug-In . SVG Version: 6.00 Build 0)  -->
<!DOCTYPE svg PUBLIC "-//W3C//DTD SVG 1.1//EN" "http://www.w3.org/Graphics/SVG/1.1/DTD/svg11.dtd">
<svg version="1.1" id="Layer_1" xmlns="http://www.w3.org/2000/svg" xmlns:xlink="http://www.w3.org/1999/xlink" x="0px" y="0px"
	 width="200px" height="200px" viewBox="0 0 200 200" enable-background="new 0 0 200 200" xml:space="preserve">
<path fill-rule="evenodd" clip-rule="evenodd" d="M99.171,32.202L84.542,50.106l24.928,23.881h45.175l2.751-5.04h-18.644
	L99.171,32.202z"/>
<path fill-rule="evenodd" clip-rule="evenodd" d="M103,73.987H45.126l-2.708-5.072h13.316l18.258-22.378L103,73.987z"/>
<g>
	<polygon fill="none" points="105.315,84.174 81.286,125.203 100.257,157.938 143.006,84.174 	"/>
	<polygon fill="none" points="99.918,84.174 57.508,84.174 78.698,120.737 	"/>
	<path d="M48.959,79.005l51.079,87.98l51.08-87.98H48.959z M99.918,84.174l-21.221,36.563l-21.19-36.563H99.918z M81.286,125.203
		l24.029-41.029h37.69l-42.749,73.763L81.286,125.203z"/>
</g>
</svg>
