<?xml version="1.0" encoding="utf-8"?>
<!-- Generator: Adobe Illustrator 16.0.3, SVG Export Plug-In . SVG Version: 6.00 Build 0)  -->
<!DOCTYPE svg PUBLIC "-//W3C//DTD SVG 1.1//EN" "http://www.w3.org/Graphics/SVG/1.1/DTD/svg11.dtd">
<svg version="1.1"
	 id="Layer_1" xmlns:inkscape="http://www.inkscape.org/namespaces/inkscape" xmlns:sodipodi="http://sodipodi.sourceforge.net/DTD/sodipodi-0.dtd" xmlns:svg="http://www.w3.org/2000/svg" xmlns:rdf="http://www.w3.org/1999/02/22-rdf-syntax-ns#" xmlns:cc="http://creativecommons.org/ns#" xmlns:dc="http://purl.org/dc/elements/1.1/" sodipodi:docname="aed-logo.svg" inkscape:version="0.48.4 r9939"
	 xmlns="http://www.w3.org/2000/svg" xmlns:xlink="http://www.w3.org/1999/xlink" x="0px" y="0px" width="200px" height="200px"
	 viewBox="0 0 200 200" enable-background="new 0 0 200 200" xml:space="preserve">
<path fill-rule="evenodd" clip-rule="evenodd" fill="#FFFFFF" d="M100,0C44.771,0,0,44.771,0,100s44.771,100,100,100
	s100-44.771,100-100S155.229,0,100,0z M100,194.365c-52.117,0-94.367-42.249-94.367-94.365c0-52.117,42.25-94.367,94.367-94.367
	s94.366,42.25,94.366,94.367C194.366,152.116,152.117,194.365,100,194.365z M147.311,93.486l-19.1,34.749l-10.075-9.999
	L96.02,158.357L53.15,93.486H147.311z M95.741,150.895l21.456-39.011l10.08,9.965l13.477-24.502H60.355L95.741,150.895z
	 M100.323,89.624L77.053,66.527l23.497-23.241l46.849,46.34L100.323,89.624z M53.702,89.626l20.595-20.372l20.524,20.37
	L53.702,89.626z"/>
</svg>
